<svg version="1.1" xmlns="http://www.w3.org/2000/svg" viewBox="-228.2 -1050.2 7674.9 3370.475"><desc>Created with Snap</desc><defs></defs><g><g transform="matrix(0.7251,0,0,0.7251,2551.0131,167.951)"><polygon points="2031.987,611.016 1646.009,750.445 763.703,359.714 1137.81,206.508 " fill="#a3003f" style=""></polygon><polygon points="1139.078,933.565 250.272,569.976 645.838,407.981 1521.066,795.578 " fill="#a3003f" style=""></polygon><polygon points="173.225,637.706 1091.877,1013.505 1091.877,2291.41 173.225,1915.2 " fill="#a3003f" style=""></polygon><path d="M1183.742,2293.706V1014.921l918.652-336.407v581.402c-359.718,23.551-643.056,321.638-643.056,687.437  c0,81.76,14.192,160.122,40.189,232.812L1183.742,2293.706z" fill="#a3003f" style=""></path><path d="M2222.921,1764.03c0-41.201-33.402-74.603-74.603-74.603c-41.202,0-74.604,33.412-74.604,74.603  c0,41.201,33.402,74.603,74.604,74.603C2189.519,1838.633,2222.921,1805.231,2222.921,1764.03z" fill="#a3003f" style=""></path><path d="M2148.327,1350.229c-330.715,0-597.124,266.409-597.124,597.124c0,330.714,266.408,597.124,597.124,597.124  s597.124-266.409,597.124-597.124C2745.451,1616.638,2479.042,1350.229,2148.327,1350.229z M2148.318,1536.069  c123.601,0,223.8,100.198,223.8,223.8s-223.8,472.471-223.8,472.471s-223.801-348.869-223.801-472.471  S2024.715,1536.069,2148.318,1536.069z M2148.327,2358.637c-147.767,0-297.359-47.817-297.359-139.199  c0-28.362,15.918-80.981,122.55-114.787c19.629-6.213,40.595,4.618,46.827,24.284c6.222,19.62-4.645,40.605-24.276,46.818  c-52.746,16.733-70.497,37.004-70.497,43.684c0,18.749,78.058,64.596,222.755,64.596c144.707,0,222.755-45.847,222.755-64.596  c0-6.68-17.777-26.979-70.571-43.711c-19.647-6.213-30.524-27.171-24.284-46.819c6.194-19.62,27.097-30.571,46.819-24.284  c106.704,33.833,122.631,86.452,122.641,114.814C2445.686,2310.82,2296.094,2358.637,2148.327,2358.637z" fill="#a3003f" style=""></path><desc>Created with Snap</desc><defs></defs></g><g><g transform="matrix(0.5,0,0,-0.5,0,0)"><path d="M402 0L158 0L158 1465L478 1465L921 407L1367 1465L1683 1465L1683 0L1433 0L1433 724L1441 1139L1404 1029L1029 100L797 100L430 1034L393 1144L402 720L402 0ZM2121 0L1838 0L2377 1466L2672 1466L3203 0L2925 0L2780 414L2267 414L2121 0ZM2526 1212L2335 616L2711 616Q2531 1193 2526 1212ZM3619 0L3351 0L3351 1469L3894 1469Q4005 1469 4086 1459Q4168 1449 4241 1422Q4315 1396 4360 1351Q4406 1306 4432 1233Q4459 1161 4459 1062Q4459 770 4194 678Q4248 617 4328 452L4546 0L4250 0L4079 383Q3982 589 3959 627Q3942 628 3846 628L3619 630L3619 0ZM3918 824Q4074 824 4142 879Q4210 935 4210 1058Q4210 1166 4141 1217Q4072 1268 3930 1268L3619 1268L3619 825Q3634 825 3768 824Q3902 824 3918 824ZM5023 0L4751 0L4751 1465L5023 1465L5023 805Q5094 899 5313 1156Q5533 1413 5575 1465L5896 1465L5342 806L5931 0L5613 0L5135 657L5023 563L5023 0ZM6990 0L6100 0L6100 1465L6988 1465L6977 1250L6371 1250L6371 872L6947 872L6947 657L6371 657L6371 216L6999 216L6990 0ZM7807 0L7535 0L7535 1248L7108 1248L7108 1465L8232 1465L8232 1248L7807 1248L7807 0ZM8664 0L8397 0L8397 1469L8885 1469Q9058 1469 9181 1424Q9304 1380 9375 1280Q9447 1180 9447 1029Q9447 924 9420 842Q9393 761 9331 694Q9269 628 9156 592Q9044 556 8885 556Q8749 556 8664 564L8664 0ZM8856 752Q8939 752 9000 768Q9062 784 9096 809Q9131 834 9151 871Q9172 908 9178 942Q9185 977 9185 1020Q9185 1141 9107 1204Q9029 1267 8887 1267L8664 1267L8664 754Q8676 752 8856 752ZM10525 0L9649 0L9649 1465L9920 1465L9920 216L10533 216L10525 0ZM10842 0L10559 0L11098 1466L11393 1466L11924 0L11646 0L11501 414L10988 414L10842 0ZM11247 1212L11056 616L11432 616Q11252 1193 11247 1212ZM12718 -21Q12397 -21 12209 181Q12021 383 12021 739Q12021 1077 12217 1281Q12414 1486 12732 1486Q12989 1486 13167 1367L13082 1162Q12911 1267 12738 1267Q12536 1267 12418 1121Q12301 976 12301 731Q12301 477 12414 338Q12528 199 12738 199Q12922 199 13103 291L13139 79Q12971 -21 12718 -21ZM14270 0L13380 0L13380 1465L14268 1465L14257 1250L13651 1250L13651 872L14227 872L14227 657L13651 657L13651 216L14279 216L14270 0Z" fill="#424077" style=""></path></g></g></g></svg>