<svg version="1.1" xmlns="http://www.w3.org/2000/svg" viewBox="-4049.9860851878407 -1495.040057373047 8799.298504316259 2273.2800659179684"><desc>Created with Snap</desc><defs></defs><g><rect x="-4049.9860851878407" y="-1495.040057373047" width="8799.298504316259" height="2273.2800659179684" fill="#774936" style=""></rect><g transform="matrix(36.5392,0,0,36.5392,-3835.096,-2225.5534)"><g><g><circle cx="16.8" cy="69.1" r="4.7" fill="#ffffff" style=""></circle><circle cx="41.3" cy="69.1" r="4.7" fill="#ffffff" style=""></circle><path d="M12.1,62H47c1.6,0,3-1,3.5-2.5l7.5-23.9h7.4c2,0,3.6-1.6,3.6-3.6s-1.6-3.6-3.6-3.6H55.3c-1.6,0-3,1-3.5,2.5l-7.5,23.9    H14.7L9.6,39C9,37.1,6.9,36.1,5,36.7c-1.9,0.6-2.9,2.7-2.3,4.6l5.9,18.3C9.1,61,10.5,62,12.1,62z" fill="#ffffff" style=""></path><g><path d="M76.2,59.6h3.7c0.7,0,1.2-0.5,1.2-1.2c0-0.7-0.5-1.2-1.2-1.2h-3.7c-0.7,0-1.2,0.5-1.2,1.2C75,59.1,75.5,59.6,76.2,59.6z" fill="#ffffff" style=""></path></g><g><path d="M64.4,45.1h28.9c0.7,0,1.2-0.5,1.2-1.2c0-0.7-0.5-1.2-1.2-1.2H64.4c-0.7,0-1.2,0.5-1.2,1.2     C63.2,44.6,63.7,45.1,64.4,45.1z" fill="#ffffff" style=""></path></g><g><path d="M91.4,48.5h5.1c0.7,0,1.2-0.5,1.2-1.2c0-0.7-0.5-1.2-1.2-1.2h-5.1c-0.7,0-1.2,0.5-1.2,1.2C90.2,47.9,90.8,48.5,91.4,48.5     z" fill="#ffffff" style=""></path></g><g><path d="M82.6,51.1h3.7c0.7,0,1.2-0.5,1.2-1.2s-0.5-1.2-1.2-1.2h-3.7c-0.7,0-1.2,0.5-1.2,1.2S82,51.1,82.6,51.1z" fill="#ffffff" style=""></path></g><g><path d="M76.2,41.8h3.7c0.7,0,1.2-0.5,1.2-1.2c0-0.7-0.5-1.2-1.2-1.2h-3.7c-0.7,0-1.2,0.5-1.2,1.2C75,41.3,75.5,41.8,76.2,41.8z" fill="#ffffff" style=""></path></g><g><path d="M61,50.9h17.1c0.7,0,1.2-0.5,1.2-1.2c0-0.7-0.5-1.2-1.2-1.2H61c-0.7,0-1.2,0.5-1.2,1.2C59.8,50.3,60.3,50.9,61,50.9z" fill="#ffffff" style=""></path></g><g><path d="M55.7,56.1h30.1c0.7,0,1.2-0.5,1.2-1.2c0-0.7-0.5-1.2-1.2-1.2H55.7c-0.7,0-1.2,0.5-1.2,1.2C54.5,55.6,55,56.1,55.7,56.1z     " fill="#ffffff" style=""></path></g></g></g><desc>Created with Snap</desc><defs></defs></g><g><g transform="matrix(1.024,0,0,-1.024,0,0)"><path d="M41 0L41 700L198 700L268 199L270 199L340 700L497 700L497 0L393 0L393 530L391 530L311 0L219 0L139 530L137 530L137 0L41 0ZM550 0L664 700L813 700L927 0L817 0L797 139L797 137L672 137L652 0L550 0ZM685 232L784 232L735 578L733 578L685 232ZM980 0L980 700L1143 700Q1228 700 1267 660Q1306 621 1306 539L1306 496Q1306 387 1234 358L1234 356Q1274 344 1290 307Q1307 270 1307 208L1307 85Q1307 55 1309 36Q1311 18 1319 0L1207 0Q1201 17 1199 32Q1197 47 1197 86L1197 214Q1197 262 1181 281Q1166 300 1128 300L1090 300L1090 0L980 0ZM1090 400L1130 400Q1163 400 1179 417Q1196 434 1196 474L1196 528Q1196 566 1182 583Q1169 600 1140 600L1090 600L1090 400ZM1383 0L1383 700L1493 700L1493 405L1633 700L1743 700L1612 443L1745 0L1630 0L1537 312L1493 223L1493 0L1383 0ZM1797 0L1797 700L2097 700L2097 600L1907 600L1907 415L2058 415L2058 315L1907 315L1907 100L2097 100L2097 0L1797 0ZM2246 0L2246 600L2131 600L2131 700L2471 700L2471 600L2356 600L2356 0L2246 0ZM2524 0L2524 700L2686 700Q2768 700 2809 656Q2850 612 2850 527L2850 458Q2850 373 2809 329Q2768 285 2686 285L2634 285L2634 0L2524 0ZM2634 385L2686 385Q2713 385 2726 400Q2740 415 2740 451L2740 534Q2740 570 2726 585Q2713 600 2686 600L2634 600L2634 385ZM2910 0L2910 700L3020 700L3020 100L3201 100L3201 0L2910 0ZM3225 0L3339 700L3488 700L3602 0L3492 0L3472 139L3472 137L3347 137L3327 0L3225 0ZM3360 232L3459 232L3410 578L3408 578L3360 232ZM3810 -10Q3731 -10 3689 35Q3648 80 3648 162L3648 538Q3648 620 3689 665Q3731 710 3810 710Q3889 710 3930 665Q3972 620 3972 538L3972 464L3868 464L3868 545Q3868 610 3813 610Q3758 610 3758 545L3758 154Q3758 90 3813 90Q3868 90 3868 154L3868 261L3972 261L3972 162Q3972 80 3930 35Q3889 -10 3810 -10ZM4038 0L4038 700L4338 700L4338 600L4148 600L4148 415L4299 415L4299 315L4148 315L4148 100L4338 100L4338 0L4038 0Z" fill="#ffffff" style=""></path></g></g></g></svg>